<?xml version="1.0" standalone="no"?>
<!DOCTYPE svg PUBLIC "-//W3C//DTD SVG 20010904//EN"
 "http://www.w3.org/TR/2001/REC-SVG-20010904/DTD/svg10.dtd">
<svg version="1.0" xmlns="http://www.w3.org/2000/svg"
 width="260.000000pt" height="260.000000pt" viewBox="0 0 260.000000 260.000000"
 preserveAspectRatio="xMidYMid meet">
<metadata>
Created by potrace 1.11, written by Peter Selinger 2001-2013
</metadata>
<g transform="translate(0.000000,260.000000) scale(0.100000,-0.100000)"
fill="#000000" stroke="none">
<path d="M1190 2435 c-8 -2 -49 -9 -90 -15 -224 -37 -446 -156 -612 -328 -95
-99 -149 -174 -207 -289 -83 -165 -116 -308 -116 -508 0 -79 6 -170 14 -210
47 -235 158 -441 328 -606 168 -163 360 -265 588 -310 91 -18 329 -18 420 0
228 45 420 147 588 310 170 165 281 371 328 606 8 40 14 131 14 210 0 79 -6
170 -14 210 -47 235 -158 441 -328 606 -164 160 -345 257 -566 305 -66 14
-311 28 -347 19z m246 -1447 c62 -29 123 -89 154 -153 35 -72 35 -198 0 -270
-31 -64 -91 -124 -155 -155 -41 -20 -65 -25 -135 -25 -70 0 -94 5 -135 25 -64
31 -124 91 -155 155 -35 72 -35 198 0 270 42 86 123 152 215 176 51 14 158 2
211 -23z"/>
</g>
</svg>
